<svg width="70" height="70" viewBox="0 0 70 70" fill="none" xmlns="http://www.w3.org/2000/svg">
<path fill-rule="evenodd" clip-rule="evenodd" d="M50 49.6049C50 44.2013 54.477 39.821 60 39.821C65.523 39.821 70 44.2013 70 49.6049C70 55.0086 65.523 59.3889 60 59.3889C60 64.7926 55.523 69.1729 50 69.1729C44.477 69.1729 40 64.7926 40 59.3889C40 53.9852 44.477 49.6049 50 49.6049ZM10 10.4691C10 5.06546 14.477 0.685181 20 0.685181C25.523 0.685181 30 5.06546 30 10.4691C30 15.8728 25.523 20.2531 20 20.2531C20 25.6568 15.523 30.037 10 30.037C4.477 30.037 0 25.6568 0 20.2531C0 14.8494 4.477 10.4691 10 10.4691ZM20 18.2963C24.418 18.2963 28 14.7917 28 10.4691C28 6.14658 24.418 2.64197 20 2.64197C15.582 2.64197 12 6.14658 12 10.4691C12 14.7917 15.582 18.2963 20 18.2963ZM60 57.4321C64.418 57.4321 68 53.9275 68 49.6049C68 45.2824 64.418 41.7778 60 41.7778C55.582 41.7778 52 45.2824 52 49.6049C52 53.9275 55.582 57.4321 60 57.4321Z" fill="black"/>
</svg>
